<svg width="34" height="7" viewBox="0 0 34 7" fill="none" xmlns="http://www.w3.org/2000/svg">
<path d="M0.955766 6.33423V0.516047H2.98986C3.39516 0.516047 3.72944 0.586122 3.9927 0.726274C4.25596 0.864531 4.45198 1.05108 4.58077 1.28593C4.70955 1.51889 4.77395 1.77741 4.77395 2.0615C4.77395 2.3115 4.72944 2.51794 4.64043 2.68082C4.5533 2.8437 4.43777 2.97249 4.29383 3.06718C4.15179 3.16188 3.99743 3.23196 3.83077 3.27741V3.33423C4.0088 3.34559 4.18777 3.40809 4.3677 3.52173C4.54762 3.63536 4.69819 3.79824 4.8194 4.01036C4.94061 4.22249 5.00122 4.48196 5.00122 4.78877C5.00122 5.08044 4.93493 5.34275 4.80236 5.57571C4.66978 5.80866 4.4605 5.99332 4.17452 6.12968C3.88853 6.26605 3.51637 6.33423 3.05804 6.33423H0.955766ZM1.66031 5.70923H3.05804C3.51827 5.70923 3.84497 5.62021 4.03815 5.44218C4.23323 5.26226 4.33077 5.04446 4.33077 4.78877C4.33077 4.5918 4.28058 4.40999 4.1802 4.24332C4.07982 4.07476 3.93683 3.94029 3.75122 3.83991C3.56561 3.73764 3.34592 3.6865 3.09213 3.6865H1.66031V5.70923ZM1.66031 3.07286H2.96713C3.17925 3.07286 3.37054 3.0312 3.54099 2.94786C3.71334 2.86453 3.84971 2.74711 3.95008 2.59559C4.05236 2.44408 4.10349 2.26605 4.10349 2.0615C4.10349 1.80582 4.01448 1.58896 3.83645 1.41093C3.65842 1.23101 3.37622 1.14105 2.98986 1.14105H1.66031V3.07286ZM6.15889 6.33423V0.516047H8.1248C8.57935 0.516047 8.95245 0.593698 9.24412 0.749001C9.53579 0.90241 9.75169 1.11358 9.89185 1.38252C10.032 1.65146 10.1021 1.95733 10.1021 2.30014C10.1021 2.64294 10.032 2.94692 9.89185 3.21207C9.75169 3.47722 9.53673 3.68555 9.24696 3.83707C8.95719 3.98669 8.58692 4.0615 8.13616 4.0615H6.54525V3.42514H8.11344C8.42404 3.42514 8.67404 3.37968 8.86344 3.28877C9.05472 3.19786 9.19298 3.06908 9.27821 2.90241C9.36533 2.73385 9.40889 2.53309 9.40889 2.30014C9.40889 2.06718 9.36533 1.86358 9.27821 1.68934C9.19109 1.5151 9.05188 1.38063 8.8606 1.28593C8.66931 1.18934 8.41647 1.14105 8.10207 1.14105H6.86344V6.33423H6.15889ZM8.89753 3.72059L10.3293 6.33423H9.51116L8.10207 3.72059H8.89753ZM16.1852 3.42514C16.1852 4.03877 16.0744 4.56908 15.8528 5.01605C15.6312 5.46302 15.3272 5.80771 14.9409 6.05014C14.5545 6.29256 14.1132 6.41377 13.617 6.41377C13.1208 6.41377 12.6795 6.29256 12.2931 6.05014C11.9068 5.80771 11.6028 5.46302 11.3812 5.01605C11.1596 4.56908 11.0488 4.03877 11.0488 3.42514C11.0488 2.8115 11.1596 2.2812 11.3812 1.83423C11.6028 1.38726 11.9068 1.04256 12.2931 0.800138C12.6795 0.557713 13.1208 0.436501 13.617 0.436501C14.1132 0.436501 14.5545 0.557713 14.9409 0.800138C15.3272 1.04256 15.6312 1.38726 15.8528 1.83423C16.0744 2.2812 16.1852 2.8115 16.1852 3.42514ZM15.5034 3.42514C15.5034 2.92135 15.4191 2.49616 15.2505 2.14957C15.0838 1.80298 14.8575 1.54067 14.5715 1.36264C14.2874 1.18461 13.9693 1.09559 13.617 1.09559C13.2647 1.09559 12.9456 1.18461 12.6596 1.36264C12.3755 1.54067 12.1492 1.80298 11.9806 2.14957C11.814 2.49616 11.7306 2.92135 11.7306 3.42514C11.7306 3.92893 11.814 4.35411 11.9806 4.70071C12.1492 5.0473 12.3755 5.30961 12.6596 5.48764C12.9456 5.66567 13.2647 5.75468 13.617 5.75468C13.9693 5.75468 14.2874 5.66567 14.5715 5.48764C14.8575 5.30961 15.0838 5.0473 15.2505 4.70071C15.4191 4.35411 15.5034 3.92893 15.5034 3.42514ZM18.4266 6.33423L16.8357 0.516047H17.5516L18.7676 5.25468H18.8244L20.063 0.516047H20.8585L22.0971 5.25468H22.1539L23.3698 0.516047H24.0857L22.4948 6.33423H21.7676L20.4835 1.69786H20.438L19.1539 6.33423H18.4266ZM28.1454 1.97059C28.1113 1.68271 27.973 1.45923 27.7306 1.30014C27.4882 1.14105 27.1909 1.0615 26.8386 1.0615C26.581 1.0615 26.3556 1.10317 26.1624 1.1865C25.9712 1.26983 25.8215 1.38442 25.7136 1.53025C25.6075 1.67608 25.5545 1.8418 25.5545 2.02741C25.5545 2.18271 25.5914 2.31624 25.6653 2.42798C25.741 2.53783 25.8376 2.62968 25.9551 2.70355C26.0725 2.77552 26.1956 2.83518 26.3244 2.88252C26.4532 2.92798 26.5715 2.96491 26.6795 2.99332L27.2704 3.15241C27.4219 3.19218 27.5905 3.24711 27.7761 3.31718C27.9636 3.38726 28.1426 3.4829 28.313 3.60411C28.4854 3.72343 28.6274 3.87684 28.7391 4.06434C28.8509 4.25184 28.9068 4.48196 28.9068 4.75468C28.9068 5.06908 28.8244 5.35317 28.6596 5.60696C28.4967 5.86074 28.2581 6.06245 27.9437 6.21207C27.6312 6.36169 27.2515 6.4365 26.8045 6.4365C26.3878 6.4365 26.027 6.36927 25.7221 6.2348C25.4191 6.10033 25.1804 5.91283 25.0062 5.6723C24.8338 5.43177 24.7363 5.15241 24.7136 4.83423H25.4409C25.4598 5.05393 25.5337 5.23574 25.6624 5.37968C25.7931 5.52173 25.9579 5.62779 26.1568 5.69786C26.3575 5.76605 26.5734 5.80014 26.8045 5.80014C27.0734 5.80014 27.3149 5.75658 27.5289 5.66946C27.7429 5.58044 27.9124 5.45733 28.0374 5.30014C28.1624 5.14105 28.2249 4.95544 28.2249 4.74332C28.2249 4.55014 28.171 4.39294 28.063 4.27173C27.9551 4.15052 27.813 4.05203 27.6369 3.97627C27.4607 3.90052 27.2704 3.83423 27.0659 3.77741L26.3499 3.57286C25.8954 3.44218 25.5355 3.25563 25.2704 3.01321C25.0052 2.77078 24.8727 2.45355 24.8727 2.0615C24.8727 1.73574 24.9607 1.45165 25.1369 1.20923C25.3149 0.96491 25.5535 0.775516 25.8528 0.641047C26.1539 0.504683 26.4901 0.436501 26.8613 0.436501C27.2363 0.436501 27.5696 0.503736 27.8613 0.638206C28.153 0.770781 28.384 0.952599 28.5545 1.18366C28.7268 1.41472 28.8177 1.67703 28.8272 1.97059H28.1454ZM30.0651 6.33423V0.516047H33.5765V1.14105H30.7697V3.10696H33.3947V3.73196H30.7697V5.70923H33.622V6.33423H30.0651Z" fill="white" fill-opacity="0.745098"/>
</svg>
