<svg width="26" height="21" viewBox="0 0 26 21" fill="none" xmlns="http://www.w3.org/2000/svg">
<path d="M13.0231 4.26184L3.9461 11.7449C3.9461 11.7555 3.94344 11.771 3.93813 11.7922C3.93294 11.8132 3.93018 11.8285 3.93018 11.8393V19.4167C3.93018 19.6903 4.0302 19.9274 4.23019 20.127C4.43013 20.3268 4.6669 20.4273 4.94054 20.4273H11.0023V14.3653H15.0441V20.4276H21.1058C21.3794 20.4276 21.6165 20.3273 21.8161 20.1271C22.0161 19.9276 22.1165 19.6903 22.1165 19.4167V11.8393C22.1165 11.7973 22.1107 11.7655 22.1005 11.7449L13.0231 4.26184Z" fill="#B5B4B4"/>
<path d="M25.5733 10.0399L22.1162 7.16678V0.725876C22.1162 0.578625 22.0689 0.457539 21.9739 0.362766C21.8797 0.268101 21.7586 0.220772 21.611 0.220772H18.5801C18.4327 0.220772 18.3116 0.268101 18.2168 0.362766C18.1222 0.457539 18.0749 0.578686 18.0749 0.725876V3.8042L14.2231 0.58366C13.8867 0.310013 13.4867 0.173218 13.0236 0.173218C12.5605 0.173218 12.1606 0.310013 11.8238 0.58366L0.473027 10.0399C0.367805 10.124 0.310134 10.2371 0.299408 10.3792C0.288736 10.5212 0.325506 10.6452 0.409828 10.7504L1.38857 11.9186C1.47289 12.0133 1.58325 12.0712 1.7201 12.0923C1.84645 12.1029 1.97279 12.066 2.09914 11.9819L13.0232 2.87278L23.9475 11.9818C24.0319 12.0552 24.1422 12.0919 24.279 12.0919H24.3265C24.4631 12.0711 24.5732 12.0128 24.658 11.9184L25.6368 10.7503C25.721 10.6449 25.7579 10.5211 25.7469 10.379C25.7361 10.2373 25.6783 10.1241 25.5733 10.0399Z" fill="#B5B4B4"/>
</svg>
