<svg width="26" height="38" viewBox="0 0 26 38" fill="none" xmlns="http://www.w3.org/2000/svg">
<path d="M13.0231 4.26184L3.9461 11.7449C3.9461 11.7555 3.94344 11.771 3.93813 11.7922C3.93294 11.8132 3.93018 11.8285 3.93018 11.8393V19.4167C3.93018 19.6903 4.0302 19.9274 4.23019 20.127C4.43013 20.3268 4.6669 20.4273 4.94054 20.4273H11.0023V14.3653H15.0441V20.4276H21.1058C21.3794 20.4276 21.6165 20.3273 21.8161 20.1271C22.0161 19.9276 22.1165 19.6903 22.1165 19.4167V11.8393C22.1165 11.7973 22.1107 11.7655 22.1005 11.7449L13.0231 4.26184Z" fill="#B5B4B4"/>
<path d="M25.5731 10.0399L22.1161 7.16678V0.725876C22.1161 0.578625 22.0688 0.457539 21.9738 0.362766C21.8796 0.268101 21.7585 0.220772 21.6109 0.220772H18.58C18.4325 0.220772 18.3115 0.268101 18.2167 0.362766C18.1221 0.457539 18.0748 0.578686 18.0748 0.725876V3.8042L14.223 0.58366C13.8866 0.310013 13.4866 0.173218 13.0235 0.173218C12.5604 0.173218 12.1604 0.310013 11.8237 0.58366L0.472905 10.0399C0.367683 10.124 0.310012 10.2371 0.299286 10.3792C0.288614 10.5212 0.325384 10.6452 0.409706 10.7504L1.38845 11.9186C1.47277 12.0133 1.58313 12.0712 1.71998 12.0923C1.84633 12.1029 1.97267 12.066 2.09902 11.9819L13.0231 2.87278L23.9474 11.9818C24.0317 12.0552 24.142 12.0919 24.2789 12.0919H24.3263C24.463 12.0711 24.5731 12.0128 24.6579 11.9184L25.6367 10.7503C25.7209 10.6449 25.7578 10.5211 25.7468 10.379C25.736 10.2373 25.6781 10.1241 25.5731 10.0399Z" fill="#B5B4B4"/>
<path d="M0.704545 36V30.1818H1.40909V32.7727H4.51136V30.1818H5.21591V36H4.51136V33.3977H1.40909V36H0.704545ZM11.5355 33.0909C11.5355 33.7045 11.4247 34.2348 11.2031 34.6818C10.9815 35.1288 10.6776 35.4735 10.2912 35.7159C9.90483 35.9583 9.46354 36.0795 8.96733 36.0795C8.47112 36.0795 8.02983 35.9583 7.64347 35.7159C7.2571 35.4735 6.95313 35.1288 6.73153 34.6818C6.50994 34.2348 6.39915 33.7045 6.39915 33.0909C6.39915 32.4773 6.50994 31.947 6.73153 31.5C6.95313 31.053 7.2571 30.7083 7.64347 30.4659C8.02983 30.2235 8.47112 30.1023 8.96733 30.1023C9.46354 30.1023 9.90483 30.2235 10.2912 30.4659C10.6776 30.7083 10.9815 31.053 11.2031 31.5C11.4247 31.947 11.5355 32.4773 11.5355 33.0909ZM10.8537 33.0909C10.8537 32.5871 10.7694 32.1619 10.6009 31.8153C10.4342 31.4688 10.2079 31.2064 9.92188 31.0284C9.63778 30.8504 9.3196 30.7614 8.96733 30.7614C8.61506 30.7614 8.29593 30.8504 8.00994 31.0284C7.72585 31.2064 7.49953 31.4688 7.33097 31.8153C7.1643 32.1619 7.08097 32.5871 7.08097 33.0909C7.08097 33.5947 7.1643 34.0199 7.33097 34.3665C7.49953 34.7131 7.72585 34.9754 8.00994 35.1534C8.29593 35.3314 8.61506 35.4205 8.96733 35.4205C9.3196 35.4205 9.63778 35.3314 9.92188 35.1534C10.2079 34.9754 10.4342 34.7131 10.6009 34.3665C10.7694 34.0199 10.8537 33.5947 10.8537 33.0909ZM12.7202 30.1818H13.5611L15.5384 35.0114H15.6065L17.5838 30.1818H18.4247V36H17.7656V31.5795H17.7088L15.8906 36H15.2543L13.4361 31.5795H13.3793V36H12.7202V30.1818ZM19.8374 36V30.1818H23.3487V30.8068H20.5419V32.7727H23.1669V33.3977H20.5419V35.375H23.3942V36H19.8374Z" fill="#B5B4B4"/>
</svg>
