<svg width="32" height="7" viewBox="0 0 32 7" fill="none" xmlns="http://www.w3.org/2000/svg">
<path d="M3.88636 1.63636C3.85227 1.34848 3.71402 1.125 3.47159 0.965909C3.22917 0.806818 2.93182 0.727273 2.57955 0.727273C2.32197 0.727273 2.09659 0.768939 1.90341 0.852273C1.71212 0.935606 1.5625 1.05019 1.45455 1.19602C1.34848 1.34186 1.29545 1.50758 1.29545 1.69318C1.29545 1.84848 1.33239 1.98201 1.40625 2.09375C1.48201 2.2036 1.5786 2.29545 1.69602 2.36932C1.81345 2.44129 1.93655 2.50095 2.06534 2.5483C2.19413 2.59375 2.3125 2.63068 2.42045 2.65909L3.01136 2.81818C3.16288 2.85795 3.33144 2.91288 3.51705 2.98295C3.70455 3.05303 3.88352 3.14867 4.05398 3.26989C4.22633 3.3892 4.36837 3.54261 4.48011 3.73011C4.59186 3.91761 4.64773 4.14773 4.64773 4.42045C4.64773 4.73485 4.56534 5.01894 4.40057 5.27273C4.23769 5.52652 3.99905 5.72822 3.68466 5.87784C3.37216 6.02746 2.99242 6.10227 2.54545 6.10227C2.12879 6.10227 1.76799 6.03504 1.46307 5.90057C1.16004 5.7661 0.921402 5.5786 0.747159 5.33807C0.574811 5.09754 0.477273 4.81818 0.454545 4.5H1.18182C1.20076 4.7197 1.27462 4.90152 1.40341 5.04545C1.53409 5.1875 1.69886 5.29356 1.89773 5.36364C2.09848 5.43182 2.31439 5.46591 2.54545 5.46591C2.81439 5.46591 3.05587 5.42235 3.26989 5.33523C3.4839 5.24621 3.65341 5.12311 3.77841 4.96591C3.90341 4.80682 3.96591 4.62121 3.96591 4.40909C3.96591 4.21591 3.91193 4.05871 3.80398 3.9375C3.69602 3.81629 3.55398 3.7178 3.37784 3.64205C3.2017 3.56629 3.01136 3.5 2.80682 3.44318L2.09091 3.23864C1.63636 3.10795 1.27652 2.9214 1.01136 2.67898C0.746212 2.43655 0.613636 2.11932 0.613636 1.72727C0.613636 1.40151 0.701705 1.11742 0.877841 0.875C1.05587 0.630682 1.29451 0.441288 1.59375 0.306818C1.89489 0.170454 2.23106 0.102273 2.60227 0.102273C2.97727 0.102273 3.31061 0.169507 3.60227 0.303977C3.89394 0.436553 4.125 0.618371 4.29545 0.849432C4.4678 1.08049 4.55871 1.3428 4.56818 1.63636H3.88636ZM5.80611 6V0.181818H9.31747V0.806818H6.51065V2.77273H9.13565V3.39773H6.51065V5.375H9.36293V6H5.80611ZM10.826 6H10.0874L12.2237 0.181818H12.951L15.0874 6H14.3487L12.6101 1.10227H12.5646L10.826 6ZM11.0987 3.72727H14.076V4.35227H11.0987V3.72727ZM15.9936 6V0.181818H17.9595C18.4141 0.181818 18.7872 0.25947 19.0788 0.414773C19.3705 0.568182 19.5864 0.779356 19.7266 1.0483C19.8667 1.31723 19.9368 1.62311 19.9368 1.96591C19.9368 2.30871 19.8667 2.61269 19.7266 2.87784C19.5864 3.14299 19.3714 3.35133 19.0817 3.50284C18.7919 3.65246 18.4216 3.72727 17.9709 3.72727H16.38V3.09091H17.9482C18.2588 3.09091 18.5088 3.04545 18.6982 2.95455C18.8894 2.86364 19.0277 2.73485 19.1129 2.56818C19.2 2.39962 19.2436 2.19886 19.2436 1.96591C19.2436 1.73295 19.2 1.52936 19.1129 1.35511C19.0258 1.18087 18.8866 1.0464 18.6953 0.951705C18.504 0.855114 18.2512 0.806818 17.9368 0.806818H16.6982V6H15.9936ZM18.7322 3.38636L20.1641 6H19.3459L17.9368 3.38636H18.7322ZM25.7926 2H25.0881C25.0464 1.79735 24.9735 1.61932 24.8693 1.46591C24.767 1.3125 24.642 1.18371 24.4943 1.07955C24.3485 0.973485 24.1866 0.893939 24.0085 0.840909C23.8305 0.787879 23.6449 0.761364 23.4517 0.761364C23.0994 0.761364 22.7803 0.850379 22.4943 1.02841C22.2102 1.20644 21.9839 1.46875 21.8153 1.81534C21.6487 2.16193 21.5653 2.58712 21.5653 3.09091C21.5653 3.5947 21.6487 4.01989 21.8153 4.36648C21.9839 4.71307 22.2102 4.97538 22.4943 5.15341C22.7803 5.33144 23.0994 5.42045 23.4517 5.42045C23.6449 5.42045 23.8305 5.39394 24.0085 5.34091C24.1866 5.28788 24.3485 5.20928 24.4943 5.10511C24.642 4.99905 24.767 4.86932 24.8693 4.71591C24.9735 4.56061 25.0464 4.38258 25.0881 4.18182H25.7926C25.7396 4.47917 25.643 4.74527 25.5028 4.98011C25.3627 5.21496 25.1884 5.41477 24.9801 5.57955C24.7718 5.74242 24.5379 5.86648 24.2784 5.9517C24.0208 6.03693 23.7453 6.07955 23.4517 6.07955C22.9555 6.07955 22.5142 5.95833 22.1278 5.71591C21.7415 5.47348 21.4375 5.12879 21.2159 4.68182C20.9943 4.23485 20.8835 3.70455 20.8835 3.09091C20.8835 2.47727 20.9943 1.94697 21.2159 1.5C21.4375 1.05303 21.7415 0.708333 22.1278 0.465909C22.5142 0.223485 22.9555 0.102273 23.4517 0.102273C23.7453 0.102273 24.0208 0.144886 24.2784 0.230114C24.5379 0.315341 24.7718 0.440341 24.9801 0.605114C25.1884 0.767992 25.3627 0.966856 25.5028 1.2017C25.643 1.43466 25.7396 1.70076 25.7926 2ZM26.9311 6V0.181818H27.6357V2.77273H30.7379V0.181818H31.4425V6H30.7379V3.39773H27.6357V6H26.9311Z" fill="#FFBB3B"/>
</svg>
