<svg width="20" height="21" viewBox="0 0 20 21" fill="none" xmlns="http://www.w3.org/2000/svg">
<path d="M19.2806 18.6216L14.46 13.608C15.6994 12.1346 16.3786 10.2808 16.3786 8.35084C16.3786 3.84173 12.71 0.173157 8.20087 0.173157C3.69177 0.173157 0.0231934 3.84173 0.0231934 8.35084C0.0231934 12.8599 3.69177 16.5285 8.20087 16.5285C9.89365 16.5285 11.5068 16.0179 12.886 15.0487L17.7432 20.1004C17.9462 20.3112 18.2192 20.4275 18.5119 20.4275C18.7888 20.4275 19.0516 20.3219 19.2511 20.1299C19.6749 19.7221 19.6884 19.0458 19.2806 18.6216ZM8.20087 2.30646C11.5338 2.30646 14.2452 5.0179 14.2452 8.35084C14.2452 11.6838 11.5338 14.3952 8.20087 14.3952C4.86794 14.3952 2.1565 11.6838 2.1565 8.35084C2.1565 5.0179 4.86793 2.30646 8.20087 2.30646Z" fill="white" fill-opacity="0.74902"/>
</svg>
