<svg width="46" height="7" viewBox="0 0 46 7" fill="none" xmlns="http://www.w3.org/2000/svg">
<path d="M2.26381 6L0.672896 0.181818H1.38881L2.60471 4.92045H2.66153L3.90017 0.181818H4.69562L5.93426 4.92045H5.99108L7.20699 0.181818H7.9229L6.33199 6H5.60471L4.32062 1.36364H4.27517L2.99108 6H2.26381ZM8.58625 6H7.84761L9.98398 0.181818H10.7112L12.8476 6H12.109L10.3703 1.10227H10.3249L8.58625 6ZM8.85898 3.72727H11.8362V4.35227H8.85898V3.72727ZM12.756 0.806818V0.181818H17.1196V0.806818H15.2901V6H14.5855V0.806818H12.756ZM22.6466 2H21.9421C21.9004 1.79735 21.8275 1.61932 21.7233 1.46591C21.621 1.3125 21.496 1.18371 21.3483 1.07955C21.2025 0.973485 21.0406 0.893939 20.8625 0.840909C20.6845 0.787879 20.4989 0.761364 20.3057 0.761364C19.9534 0.761364 19.6343 0.850379 19.3483 1.02841C19.0642 1.20644 18.8379 1.46875 18.6693 1.81534C18.5027 2.16193 18.4193 2.58712 18.4193 3.09091C18.4193 3.5947 18.5027 4.01989 18.6693 4.36648C18.8379 4.71307 19.0642 4.97538 19.3483 5.15341C19.6343 5.33144 19.9534 5.42045 20.3057 5.42045C20.4989 5.42045 20.6845 5.39394 20.8625 5.34091C21.0406 5.28788 21.2025 5.20928 21.3483 5.10511C21.496 4.99905 21.621 4.86932 21.7233 4.71591C21.8275 4.56061 21.9004 4.38258 21.9421 4.18182H22.6466C22.5936 4.47917 22.497 4.74527 22.3568 4.98011C22.2167 5.21496 22.0425 5.41477 21.8341 5.57955C21.6258 5.74242 21.3919 5.86648 21.1324 5.9517C20.8748 6.03693 20.5993 6.07955 20.3057 6.07955C19.8095 6.07955 19.3682 5.95833 18.9818 5.71591C18.5955 5.47348 18.2915 5.12879 18.0699 4.68182C17.8483 4.23485 17.7375 3.70455 17.7375 3.09091C17.7375 2.47727 17.8483 1.94697 18.0699 1.5C18.2915 1.05303 18.5955 0.708333 18.9818 0.465909C19.3682 0.223485 19.8095 0.102273 20.3057 0.102273C20.5993 0.102273 20.8748 0.144886 21.1324 0.230114C21.3919 0.315341 21.6258 0.440341 21.8341 0.605114C22.0425 0.767992 22.2167 0.966856 22.3568 1.2017C22.497 1.43466 22.5936 1.70076 22.6466 2ZM23.7851 6V0.181818H24.4897V2.77273H27.5919V0.181818H28.2965V6H27.5919V3.39773H24.4897V6H23.7851ZM29.707 6V0.181818H30.4115V5.375H33.1161V6H29.707ZM34.9115 0.181818V6H34.207V0.181818H34.9115ZM39.506 1.63636C39.4719 1.34848 39.3336 1.125 39.0912 0.965909C38.8488 0.806818 38.5514 0.727273 38.1992 0.727273C37.9416 0.727273 37.7162 0.768939 37.523 0.852273C37.3318 0.935606 37.1821 1.05019 37.0742 1.19602C36.9681 1.34186 36.9151 1.50758 36.9151 1.69318C36.9151 1.84848 36.952 1.98201 37.0259 2.09375C37.1016 2.2036 37.1982 2.29545 37.3157 2.36932C37.4331 2.44129 37.5562 2.50095 37.685 2.5483C37.8138 2.59375 37.9321 2.63068 38.0401 2.65909L38.631 2.81818C38.7825 2.85795 38.9511 2.91288 39.1367 2.98295C39.3242 3.05303 39.5032 3.14867 39.6736 3.26989C39.846 3.3892 39.988 3.54261 40.0997 3.73011C40.2115 3.91761 40.2674 4.14773 40.2674 4.42045C40.2674 4.73485 40.185 5.01894 40.0202 5.27273C39.8573 5.52652 39.6187 5.72822 39.3043 5.87784C38.9918 6.02746 38.6121 6.10227 38.1651 6.10227C37.7484 6.10227 37.3876 6.03504 37.0827 5.90057C36.7797 5.7661 36.541 5.5786 36.3668 5.33807C36.1944 5.09754 36.0969 4.81818 36.0742 4.5H36.8014C36.8204 4.7197 36.8943 4.90152 37.023 5.04545C37.1537 5.1875 37.3185 5.29356 37.5174 5.36364C37.7181 5.43182 37.934 5.46591 38.1651 5.46591C38.434 5.46591 38.6755 5.42235 38.8895 5.33523C39.1035 5.24621 39.273 5.12311 39.398 4.96591C39.523 4.80682 39.5855 4.62121 39.5855 4.40909C39.5855 4.21591 39.5316 4.05871 39.4236 3.9375C39.3157 3.81629 39.1736 3.7178 38.9975 3.64205C38.8213 3.56629 38.631 3.5 38.4264 3.44318L37.7105 3.23864C37.256 3.10795 36.8961 2.9214 36.631 2.67898C36.3658 2.43655 36.2333 2.11932 36.2333 1.72727C36.2333 1.40151 36.3213 1.11742 36.4975 0.875C36.6755 0.630682 36.9141 0.441288 37.2134 0.306818C37.5145 0.170454 37.8507 0.102273 38.2219 0.102273C38.5969 0.102273 38.9302 0.169507 39.2219 0.303977C39.5136 0.436553 39.7446 0.618371 39.9151 0.849432C40.0874 1.08049 40.1783 1.3428 40.1878 1.63636H39.506ZM41.1076 0.806818V0.181818H45.4712V0.806818H43.6416V6H42.9371V0.806818H41.1076Z" fill="white" fill-opacity="0.745098"/>
</svg>
